<svg width="13" height="14" viewBox="0 0 13 14" fill="none" xmlns="http://www.w3.org/2000/svg">
<g clip-path="url(#clip0_36_47)">
<path d="M9.481 0.767578H3.51898C1.57858 0.767578 0 2.34616 0 4.28655V10.2487C0 12.189 1.57858 13.7676 3.51898 13.7676H9.4811C11.4214 13.7676 13 12.189 13 10.2487V4.28655C13 2.34616 11.4214 0.767578 9.481 0.767578V0.767578ZM12.2379 10.2487C12.2379 11.7687 11.0012 13.0054 9.481 13.0054H3.51898C1.99881 13.0054 0.762114 11.7687 0.762114 10.2487V4.28655C0.762114 2.76639 1.99881 1.52969 3.51898 1.52969H9.4811C11.0012 1.52969 12.2379 2.76639 12.2379 4.28655V10.2487Z" fill="black"/>
<path d="M6.50002 3.71301C4.53998 3.71301 2.94543 5.30756 2.94543 7.26759C2.94543 9.22763 4.53998 10.8222 6.50002 10.8222C8.46005 10.8222 10.0546 9.22763 10.0546 7.26759C10.0546 5.30756 8.46005 3.71301 6.50002 3.71301ZM6.50002 10.0601C4.96032 10.0601 3.70755 8.80739 3.70755 7.26759C3.70755 5.72789 4.96032 4.47513 6.50002 4.47513C8.03982 4.47513 9.29248 5.72789 9.29248 7.26759C9.29248 8.80739 8.03982 10.0601 6.50002 10.0601Z" fill="black"/>
<path d="M10.1396 2.45062C9.56035 2.45062 9.08923 2.92184 9.08923 3.50096C9.08923 4.08018 9.56035 4.55139 10.1396 4.55139C10.7188 4.55139 11.19 4.08018 11.19 3.50096C11.19 2.92174 10.7188 2.45062 10.1396 2.45062ZM10.1396 3.78918C9.98068 3.78918 9.85135 3.65985 9.85135 3.50096C9.85135 3.34197 9.98068 3.21274 10.1396 3.21274C10.2986 3.21274 10.4279 3.34197 10.4279 3.50096C10.4279 3.65985 10.2986 3.78918 10.1396 3.78918Z" fill="black"/>
</g>
<defs>
<clipPath id="clip0_36_47">
<rect width="13" height="13" fill="white" transform="translate(0 0.767578)"/>
</clipPath>
</defs>
</svg>
