<svg width="11" height="12" viewBox="0 0 11 12" fill="none" xmlns="http://www.w3.org/2000/svg">
<g clip-path="url(#clip0_36_54)">
<path d="M10.9972 11.2324V11.232H11V7.19773C11 5.22415 10.5751 3.70386 8.26783 3.70386C7.15866 3.70386 6.41433 4.31252 6.11046 4.88957H6.07837V3.88811H3.89075V11.232H6.16866V7.59557C6.16866 6.63811 6.35016 5.71227 7.53587 5.71227C8.70416 5.71227 8.72158 6.80494 8.72158 7.65698V11.2324H10.9972Z" fill="black"/>
<path d="M0.181519 3.88855H2.46219V11.2324H0.181519V3.88855Z" fill="black"/>
<path d="M1.32092 0.232422C0.591708 0.232422 0 0.82413 0 1.55334C0 2.28255 0.591708 2.88663 1.32092 2.88663C2.05013 2.88663 2.64183 2.28255 2.64183 1.55334C2.64138 0.82413 2.04967 0.232422 1.32092 0.232422V0.232422Z" fill="black"/>
</g>
<defs>
<clipPath id="clip0_36_54">
<rect width="11" height="11" fill="white" transform="translate(0 0.232422)"/>
</clipPath>
</defs>
</svg>
